# xmcd CD database file
#
# Track frame offsets:
#	150
#	10570
#	22767
#	34362
#	48035
#	61995
#	71425
#	84175
#	93362
#	102387
#	112227
#	124222
#	135187
#
# Disc length: 1959 seconds
#
# Revision: 0
# Processed by: cddbd v1.4PL0 Copyright (c) Steve Scherf et al.
# Submitted via: CDex 1.40Beta8
#
DISCID=9907a50d
DTITLE=Webb Foley - "George Jones, Jack Daniels, and Me"
DYEAR=1900
DGENRE=Country
TTITLE0=George Jones, Jack Daniels, and Me
TTITLE1=The Last Thing On My Mind
TTITLE2=Beer and Popcorn
TTITLE3=One By One
TTITLE4=Time to Do
TTITLE5=Sstrange Little Girl
TTITLE6=I Wish It Was Only A Dream
TTITLE7=Red Ridin' Hood
TTITLE8=Vacation Time
TTITLE9=Back To Back
TTITLE10=The Baseball Serenade
TTITLE11=Extra Christmas
TTITLE12=Littletown Christmas
EXTD=ID3G: 2
EXTT0=
EXTT1=
EXTT2=
EXTT3=
EXTT4=
EXTT5=
EXTT6=
EXTT7=
EXTT8=
EXTT9=
EXTT10=
EXTT11=
EXTT12=
PLAYORDER=
